<svg width="1084" height="643" viewBox="0 0 1084 643" fill="none" xmlns="http://www.w3.org/2000/svg">
<path d="M78 9V573H1083" stroke="#F1ECE5"/>
<path d="M566.535 628.122L569.534 633.701L569.659 634.089H569.752L569.876 633.701L572.86 628.122H574.29L570.311 635.27V639H569.068V635.239L565.105 628.122H566.535ZM577.504 631.075C579.509 631.075 580.705 632.24 580.938 634.338V635.27H575.018C575.111 637.058 576.105 638.037 577.97 638.068C578.794 638.068 579.586 637.912 580.255 637.601L580.519 638.611C579.726 638.969 578.856 639.155 577.97 639.155C575.546 639.155 573.774 637.632 573.774 635.131C573.774 633.002 575.282 631.106 577.504 631.075ZM577.52 632.162C576.245 632.162 575.391 633.064 575.111 634.183H579.68C579.617 632.908 578.701 632.162 577.52 632.162ZM585.846 631.075C586.949 631.075 587.695 631.401 588.239 631.852L588.316 631.821V631.23H589.56V639H588.316V638.145L588.223 638.099C587.695 638.72 586.809 639.155 585.69 639.155C583.608 639.155 581.945 637.368 581.945 635.115C581.945 632.862 583.67 631.075 585.846 631.075ZM586.001 638.068C586.949 638.068 587.835 637.71 588.316 636.762V632.939C587.757 632.458 586.933 632.162 586.001 632.162C584.463 632.162 583.188 633.483 583.188 635.115C583.188 636.731 584.463 638.068 586.001 638.068ZM591.892 639.016V631.23H593.136V632.1L593.229 632.147C593.757 631.525 594.596 631.075 595.606 631.075H595.824V632.162H595.451C594.503 632.162 593.695 632.613 593.136 633.328V639.016H591.892Z" fill="#F1ECE5"/>
<path d="M201.131 599.635V589.845H199.235V588.757H202.374V599.635H201.131Z" fill="#F1ECE5"/>
<path d="M317.196 594.352V593.264H318.129C319.589 593.264 320.771 592.611 320.771 591.477C320.771 590.296 319.792 589.69 318.533 589.69C317.663 589.69 316.808 589.767 316.124 590.047L315.969 589.053C316.777 588.695 317.678 588.602 318.533 588.602C320.506 588.602 322.014 589.69 322.014 591.477C322.014 592.487 321.33 593.295 320.413 593.715V593.808C321.516 594.258 322.325 595.222 322.325 596.527C322.325 598.408 320.755 599.635 318.688 599.635C317.787 599.635 316.792 599.542 315.938 599.185L316.124 598.19C316.854 598.47 317.833 598.547 318.688 598.547C320.04 598.547 321.081 597.879 321.081 596.527C321.081 595.066 319.9 594.352 318.44 594.352H317.196Z" fill="#F1ECE5"/>
<path d="M433.795 593.644L433.786 588.671L439.567 588.662L439.569 589.75L435.031 589.757L435.036 592.554L436.233 592.553C438.393 592.549 439.965 593.883 439.968 595.965C439.972 598.126 438.281 599.542 436.027 599.546C435.219 599.547 434.38 599.486 433.618 599.254L433.818 598.213C434.456 598.367 435.264 598.459 436.025 598.458C437.564 598.456 438.728 597.646 438.725 595.967C438.722 594.398 437.695 593.638 436.235 593.64L433.795 593.644Z" fill="#F1ECE5"/>
<path d="M553.99 589.534L550.463 599.635H549.22L552.747 589.845H547.464V588.757H553.99V589.534Z" fill="#F1ECE5"/>
<path d="M658.793 599.791L658.514 598.765C660.176 598.47 661.653 597.724 662.445 596.232C662.787 595.564 662.989 594.756 663.067 594.119L662.974 594.087C662.414 594.802 661.373 595.331 660.254 595.331C658.42 595.331 656.866 593.979 656.866 591.99C656.866 589.861 658.669 588.602 660.658 588.602C663.02 588.633 664.388 590.544 664.388 592.767C664.388 595.129 663.564 597.522 661.466 598.812C660.643 599.309 659.741 599.62 658.793 599.791ZM662.849 591.135C662.414 590.218 661.622 589.69 660.627 589.69C659.275 589.69 658.11 590.498 658.11 591.943C658.11 593.481 659.104 594.243 660.441 594.243C661.591 594.227 662.632 593.559 663.145 592.533C663.129 592.052 663.02 591.492 662.849 591.135Z" fill="#F1ECE5"/>
<path d="M758.35 599.635V589.845H756.454V588.757H759.593V599.635H758.35ZM763.199 599.635V589.845H761.303V588.757H764.442V599.635H763.199Z" fill="#F1ECE5"/>
<path d="M881.561 599.635V589.845H879.665V588.757H882.804V599.635H881.561ZM885.928 594.352V593.264H886.86C888.321 593.264 889.502 592.611 889.502 591.477C889.502 590.296 888.523 589.69 887.265 589.69C886.394 589.69 885.54 589.767 884.856 590.047L884.7 589.053C885.509 588.695 886.41 588.602 887.265 588.602C889.238 588.602 890.745 589.69 890.745 591.477C890.745 592.487 890.062 593.295 889.145 593.715V593.808C890.248 594.258 891.056 595.222 891.056 596.527C891.056 598.408 889.487 599.635 887.42 599.635C886.519 599.635 885.524 599.542 884.669 599.185L884.856 598.19C885.586 598.47 886.565 598.547 887.42 598.547C888.772 598.547 889.813 597.879 889.813 596.527C889.813 595.066 888.632 594.352 887.171 594.352H885.928Z" fill="#F1ECE5"/>
<path d="M988.119 599.635V589.845H986.224V588.757H989.363V599.635H988.119ZM991.414 593.73V588.757H997.195V589.845H992.658V592.642H993.854C996.014 592.642 997.584 593.979 997.584 596.061C997.584 598.221 995.89 599.635 993.637 599.635C992.829 599.635 991.989 599.573 991.228 599.34L991.43 598.299C992.067 598.454 992.875 598.547 993.637 598.547C995.175 598.547 996.341 597.739 996.341 596.061C996.341 594.492 995.315 593.73 993.854 593.73H991.414Z" fill="#F1ECE5"/>
<path d="M37.4836 507.997L37.7789 506.956C38.7113 507.314 39.566 507.578 40.6848 507.578C41.8503 507.578 42.9692 506.972 42.9692 505.573C42.9692 504.579 42.3476 503.988 40.6848 503.522C39.0842 503.071 37.5302 502.154 37.5302 500.476C37.5302 498.705 38.7734 497.741 40.2653 497.523V495.923H41.5085V497.508C42.3787 497.586 43.1557 497.819 43.9482 498.145L43.6374 499.202C42.7517 498.829 41.9747 498.565 40.9024 498.565C39.7991 498.565 38.7734 499.186 38.7734 500.476C38.7734 501.362 39.4261 501.952 41.0578 502.481C42.7361 503.025 44.2124 503.817 44.2124 505.573C44.2124 507.376 42.9848 508.355 41.5085 508.603V510.064H40.2653V508.65C39.3018 508.588 38.3694 508.355 37.4836 507.997ZM47.1956 508.51V498.72H45.2997V497.632H48.4388V508.51H47.1956ZM57.639 508.51L53.3655 503.522L52.1689 504.858V508.51H50.9257V497.632H52.1689V503.149L52.2621 503.18L57.0018 497.632H58.5403L58.5714 497.71L54.2046 502.59L59.2085 508.433L59.1774 508.51H57.639Z" fill="#F1ECE5"/>
<path d="M37.4836 383.677L37.7789 382.636C38.7113 382.993 39.566 383.258 40.6848 383.258C41.8503 383.258 42.9692 382.652 42.9692 381.253C42.9692 380.258 42.3476 379.668 40.6848 379.202C39.0842 378.751 37.5302 377.834 37.5302 376.156C37.5302 374.384 38.7734 373.421 40.2653 373.203V371.603H41.5085V373.188C42.3787 373.265 43.1557 373.499 43.9482 373.825L43.6374 374.882C42.7517 374.509 41.9747 374.244 40.9024 374.244C39.7991 374.244 38.7734 374.866 38.7734 376.156C38.7734 377.042 39.4261 377.632 41.0578 378.161C42.7361 378.704 44.2124 379.497 44.2124 381.253C44.2124 383.056 42.9848 384.035 41.5085 384.283V385.744H40.2653V384.33C39.3018 384.268 38.3694 384.035 37.4836 383.677ZM46.7139 378.906V377.819H47.6463C49.107 377.819 50.2881 377.166 50.2881 376.032C50.2881 374.851 49.3091 374.244 48.0503 374.244C47.1801 374.244 46.3254 374.322 45.6416 374.602L45.4862 373.607C46.2943 373.25 47.1956 373.157 48.0503 373.157C50.0239 373.157 51.5313 374.244 51.5313 376.032C51.5313 377.042 50.8475 377.85 49.9307 378.269V378.363C51.034 378.813 51.8421 379.777 51.8421 381.082C51.8421 382.962 50.2725 384.19 48.2057 384.19C47.3044 384.19 46.3098 384.097 45.4551 383.739L45.6416 382.745C46.372 383.025 47.351 383.102 48.2057 383.102C49.5577 383.102 50.5989 382.434 50.5989 381.082C50.5989 379.621 49.4178 378.906 47.9571 378.906H46.7139ZM60.2644 384.19L55.9909 379.202L54.7943 380.538V384.19H53.5511V373.312H54.7943V378.829L54.8876 378.86L59.6273 373.312H61.1657L61.1968 373.39L56.8301 378.269L61.8339 384.112L61.8029 384.19H60.2644Z" fill="#F1ECE5"/>
<path d="M37.4836 261.577L37.7789 260.536C38.7113 260.893 39.566 261.158 40.6848 261.158C41.8503 261.158 42.9692 260.552 42.9692 259.153C42.9692 258.158 42.3476 257.568 40.6848 257.102C39.0842 256.651 37.5302 255.734 37.5302 254.056C37.5302 252.284 38.7734 251.321 40.2653 251.103V249.503H41.5085V251.088C42.3787 251.165 43.1557 251.398 43.9482 251.725L43.6374 252.782C42.7517 252.409 41.9747 252.144 40.9024 252.144C39.7991 252.144 38.7734 252.766 38.7734 254.056C38.7734 254.942 39.4261 255.532 41.0578 256.06C42.7361 256.604 44.2124 257.397 44.2124 259.153C44.2124 260.956 42.9848 261.935 41.5085 262.183V263.644H40.2653V262.23C39.3018 262.168 38.3694 261.935 37.4836 261.577ZM45.6416 256.185V251.212H51.4225V252.3H46.8848V255.097H48.0814C50.2415 255.097 51.811 256.433 51.811 258.516C51.811 260.676 50.1171 262.09 47.8638 262.09C47.0558 262.09 46.2166 262.028 45.4551 261.795L45.6572 260.754C46.2943 260.909 47.1024 261.002 47.8638 261.002C49.4023 261.002 50.5678 260.194 50.5678 258.516C50.5678 256.946 49.5422 256.185 48.0814 256.185H45.6416ZM60.234 262.09L55.9605 257.102L54.764 258.438V262.09H53.5208V251.212H54.764V256.729L54.8572 256.76L59.5969 251.212H61.1354L61.1664 251.29L56.7997 256.169L61.8036 262.012L61.7725 262.09H60.234Z" fill="#F1ECE5"/>
<path d="M37.4836 135.037L37.7789 133.996C38.7113 134.354 39.566 134.618 40.6848 134.618C41.8503 134.618 42.9692 134.012 42.9692 132.613C42.9692 131.619 42.3476 131.028 40.6848 130.562C39.0842 130.111 37.5302 129.194 37.5302 127.516C37.5302 125.744 38.7734 124.781 40.2653 124.563V122.963H41.5085V124.548C42.3787 124.626 43.1557 124.859 43.9482 125.185L43.6374 126.242C42.7517 125.869 41.9747 125.605 40.9024 125.605C39.7991 125.605 38.7734 126.226 38.7734 127.516C38.7734 128.402 39.4261 128.992 41.0578 129.521C42.7361 130.065 44.2124 130.857 44.2124 132.613C44.2124 134.416 42.9848 135.395 41.5085 135.643V137.104H40.2653V135.69C39.3018 135.628 38.3694 135.395 37.4836 135.037ZM51.5157 125.449L47.9882 135.55H46.745L50.2725 125.76H44.9889V124.672H51.5157V125.449ZM59.627 135.55L55.3535 130.562L54.1569 131.898V135.55H52.9137V124.672H54.1569V130.189L54.2502 130.22L58.9899 124.672H60.5283L60.5594 124.75L56.1927 129.629L61.1966 135.472L61.1655 135.55H59.627Z" fill="#F1ECE5"/>
<path d="M37.4836 12.4872L37.7789 11.446C38.7113 11.8034 39.566 12.0676 40.6848 12.0676C41.8503 12.0676 42.9692 11.4615 42.9692 10.0629C42.9692 9.06838 42.3476 8.47786 40.6848 8.01166C39.0842 7.561 37.5302 6.64414 37.5302 4.96582C37.5302 3.19426 38.7734 2.23078 40.2653 2.01322V0.412599H41.5085V1.99768C42.3787 2.07538 43.1557 2.30848 43.9482 2.63482L43.6374 3.69154C42.7517 3.31858 41.9747 3.0544 40.9024 3.0544C39.7991 3.0544 38.7734 3.676 38.7734 4.96582C38.7734 5.8516 39.4261 6.44212 41.0578 6.97048C42.7361 7.51438 44.2124 8.30692 44.2124 10.0629C44.2124 11.8656 42.9848 12.8446 41.5085 13.0932V14.554H40.2653V13.1399C39.3018 13.0777 38.3694 12.8446 37.4836 12.4872ZM47.5375 13.1554L47.2578 12.1298C48.9206 11.8345 50.3969 11.0886 51.1894 9.59674C51.5313 8.92852 51.7333 8.12044 51.811 7.4833L51.7178 7.45222C51.1583 8.16706 50.1171 8.69542 48.9983 8.69542C47.1645 8.69542 45.6105 7.34344 45.6105 5.35432C45.6105 3.22534 47.4132 1.9666 49.4023 1.9666C51.7644 1.99768 53.1319 3.9091 53.1319 6.13132C53.1319 8.4934 52.3083 10.8866 50.2104 12.1764C49.3868 12.6737 48.4854 12.9845 47.5375 13.1554ZM51.5934 4.49962C51.1583 3.58276 50.3658 3.0544 49.3712 3.0544C48.0192 3.0544 46.8537 3.86248 46.8537 5.3077C46.8537 6.84616 47.8483 7.60762 49.1847 7.60762C50.3347 7.59208 51.3759 6.92386 51.8887 5.89822C51.8732 5.41648 51.7644 4.85704 51.5934 4.49962ZM61.7061 13L57.4326 8.01166L56.236 9.3481V13H54.9928V2.122H56.236V7.6387L56.3293 7.66978L61.069 2.122H62.6074L62.6385 2.1997L58.2718 7.07926L63.2756 12.9223L63.2446 13H61.7061Z" fill="#F1ECE5"/>
<path d="M12 328.119L3.12666 328.119L3.11112 328.212L3.57732 328.321L12 332.206L12 333.216L3.57732 337.101L2.97126 337.241L2.9868 337.334L12 337.334L12 338.577L1.122 338.577L1.122 336.961L10.042 332.936L10.6325 332.765L10.6325 332.672L10.0264 332.47L1.122 328.461L1.122 326.876L12 326.876L12 328.119ZM8.115 325.246C5.8617 325.246 4.0746 323.459 4.0746 321.206C4.0746 318.952 5.8617 317.15 8.115 317.15C10.3683 317.15 12.1554 318.952 12.1554 321.206C12.1554 323.459 10.3683 325.246 8.115 325.246ZM8.115 324.003C9.7467 324.003 11.0676 322.76 11.0676 321.206C11.0676 319.667 9.7467 318.393 8.115 318.393C6.49884 318.393 5.1624 319.667 5.1624 321.206C5.1624 322.76 6.49884 324.003 8.115 324.003ZM12 315.602L4.23 315.602L4.23 314.359L5.2401 314.359L5.27118 314.266C4.57188 313.691 4.0746 312.696 4.0746 311.422C4.0746 309.884 5.17794 308.609 7.338 308.609L12 308.609L12 309.852L7.338 309.852C5.81508 309.852 5.1624 310.692 5.1624 311.733C5.1624 312.805 5.64414 313.815 6.62316 314.359L12 314.359L12 315.602ZM5.3178 307.605L4.23 307.605L4.23 306.346L1.7436 306.346L1.7436 305.103L4.23 305.103L4.23 302.803L5.3178 302.803L5.3178 305.103L9.4359 305.103C10.5237 305.103 10.9899 304.528 10.9899 303.705C10.9899 303.238 10.9433 302.834 10.7879 302.477L11.7514 302.166C11.9845 302.632 12.0777 303.161 12.0777 303.705C12.0777 305.212 11.1298 306.346 9.4359 306.346L5.3178 306.346L5.3178 307.605ZM12 300.927L0.655803 300.927L0.655803 299.683L5.2401 299.683L5.27118 299.59C4.57188 299.015 4.0746 298.021 4.0746 296.746C4.0746 295.208 5.17794 293.934 7.338 293.934L12 293.934L12 295.177L7.338 295.177C5.81508 295.177 5.1624 296.016 5.1624 297.057C5.1624 298.129 5.64414 299.14 6.62316 299.683L12 299.683L12 300.927ZM11.0521 289.266L12.1399 289.422C12.1399 290.836 11.3784 291.753 9.96426 291.753L0.655803 291.753L0.655803 290.509L9.96426 290.509C10.6791 290.509 11.0054 289.981 11.0521 289.266ZM4.23 287.212L10.1041 284.819L10.5237 284.726L10.5237 284.633L4.23 282.442L4.23 281.012L13.3831 284.602C14.7506 285.13 15.8695 285.829 15.8695 287.881L14.7972 287.989C14.7972 286.715 14.2688 286.156 13.1033 285.721L11.8757 285.27L4.23 288.642L4.23 287.212ZM12 269.924L7.338 272.659L7.338 274.944L12 274.944L12 276.187L1.122 276.187L1.122 273.064C1.122 270.546 2.53614 269.179 4.23 269.179C5.51982 269.179 6.62316 269.94 7.1049 271.385L12 268.448L12 269.924ZM2.2098 273.064L2.2098 274.944L6.2502 274.944L6.2502 273.064C6.2502 271.261 5.34888 270.422 4.23 270.422C3.12666 270.422 2.2098 271.261 2.2098 273.064ZM4.0746 264.558C4.0746 262.553 5.2401 261.356 7.338 261.123L8.2704 261.123L8.2704 267.044C10.0575 266.951 11.0365 265.956 11.0676 264.091C11.0676 263.268 10.9122 262.475 10.6014 261.807L11.6115 261.543C11.9689 262.335 12.1554 263.206 12.1554 264.091C12.1554 266.516 10.6325 268.287 8.13054 268.287C6.00156 268.287 4.10568 266.78 4.0746 264.558ZM5.1624 264.542C5.1624 265.816 6.06372 266.671 7.1826 266.951L7.1826 262.382C5.90832 262.444 5.1624 263.361 5.1624 264.542ZM12 259.495L4.23 259.495L4.23 258.252L5.2401 258.252L5.27118 258.158C4.57188 257.584 4.0746 256.589 4.0746 255.315C4.0746 253.776 5.17794 252.502 7.338 252.502L12 252.502L12 253.745L7.338 253.745C5.81508 253.745 5.1624 254.584 5.1624 255.625C5.1624 256.698 5.64414 257.708 6.62316 258.252L12 258.252L12 259.495ZM5.3178 251.498L4.23 251.498L4.23 250.239L1.7436 250.239L1.7436 248.996L4.23 248.996L4.23 246.696L5.3178 246.696L5.3178 248.996L9.4359 248.996C10.5237 248.996 10.9899 248.421 10.9899 247.597C10.9899 247.131 10.9433 246.727 10.7879 246.37L11.7514 246.059C11.9845 246.525 12.0777 247.053 12.0777 247.597C12.0777 249.105 11.1298 250.239 9.4359 250.239L5.3178 250.239L5.3178 251.498Z" fill="#F1ECE5"/>
<g opacity="0.3">
<line x1="77.6992" y1="133.04" x2="1083.36" y2="133.04" stroke="#F1ECE5"/>
<line x1="77.6992" y1="70.8801" x2="1083.36" y2="70.8801" stroke="#F1ECE5"/>
<line x1="77.6992" y1="8.49951" x2="1083.36" y2="8.49944" stroke="#F1ECE5"/>
<line x1="77.6992" y1="504.89" x2="1083.36" y2="504.89" stroke="#F1ECE5"/>
<line x1="77.6992" y1="442.73" x2="1083.36" y2="442.73" stroke="#F1ECE5"/>
<line x1="77.6992" y1="380.57" x2="1083.36" y2="380.57" stroke="#F1ECE5"/>
<line x1="77.6992" y1="319.52" x2="1083.36" y2="319.52" stroke="#F1ECE5"/>
<line x1="77.6992" y1="258.47" x2="1083.36" y2="258.47" stroke="#F1ECE5"/>
<line x1="77.6992" y1="196.31" x2="1083.36" y2="196.31" stroke="#F1ECE5"/>
</g>
<path d="M1021.37 192V183.435L1021.28 183.42L1021.18 183.87L1017.43 192H1016.45L1012.7 183.87L1012.57 183.285L1012.48 183.3V192H1011.28V181.5H1012.84L1016.72 190.11L1016.89 190.68H1016.98L1017.17 190.095L1021.04 181.5H1022.57V192H1021.37ZM1024.14 188.25C1024.14 186.075 1025.87 184.35 1028.04 184.35C1030.22 184.35 1031.96 186.075 1031.96 188.25C1031.96 190.425 1030.22 192.15 1028.04 192.15C1025.87 192.15 1024.14 190.425 1024.14 188.25ZM1025.34 188.25C1025.34 189.825 1026.54 191.1 1028.04 191.1C1029.53 191.1 1030.76 189.825 1030.76 188.25C1030.76 186.69 1029.53 185.4 1028.04 185.4C1026.54 185.4 1025.34 186.69 1025.34 188.25ZM1033.45 192V184.5H1034.65V185.475L1034.74 185.505C1035.3 184.83 1036.26 184.35 1037.49 184.35C1038.97 184.35 1040.2 185.415 1040.2 187.5V192H1039V187.5C1039 186.03 1038.19 185.4 1037.19 185.4C1036.15 185.4 1035.18 185.865 1034.65 186.81V192H1033.45ZM1041.17 185.55V184.5H1042.39V182.1H1043.59V184.5H1045.81V185.55H1043.59V189.525C1043.59 190.575 1044.14 191.025 1044.94 191.025C1045.39 191.025 1045.78 190.98 1046.12 190.83L1046.42 191.76C1045.97 191.985 1045.46 192.075 1044.94 192.075C1043.48 192.075 1042.39 191.16 1042.39 189.525V185.55H1041.17ZM1047.62 192V181.05H1048.82V185.475L1048.91 185.505C1049.46 184.83 1050.42 184.35 1051.65 184.35C1053.14 184.35 1054.37 185.415 1054.37 187.5V192H1053.17V187.5C1053.17 186.03 1052.36 185.4 1051.35 185.4C1050.32 185.4 1049.34 185.865 1048.82 186.81V192H1047.62ZM1058.87 191.085L1058.72 192.135C1057.36 192.135 1056.47 191.4 1056.47 190.035V181.05H1057.67V190.035C1057.67 190.725 1058.18 191.04 1058.87 191.085ZM1060.85 184.5L1063.16 190.17L1063.25 190.575H1063.34L1065.46 184.5H1066.84L1063.37 193.335C1062.86 194.655 1062.19 195.735 1060.21 195.735L1060.1 194.7C1061.33 194.7 1061.87 194.19 1062.29 193.065L1062.73 191.88L1059.47 184.5H1060.85ZM1011.28 209V198.5H1014.11C1017.19 198.5 1019.36 200.765 1019.36 203.75C1019.36 206.735 1017.19 209 1014.11 209H1011.28ZM1014.11 199.55H1012.48V207.95H1014.11C1016.51 207.95 1018.16 206.135 1018.16 203.75C1018.16 201.515 1016.51 199.55 1014.11 199.55ZM1021.16 209V201.5H1022.36V209H1021.16ZM1021.02 199.13C1021.02 198.725 1021.35 198.395 1021.74 198.395C1022.15 198.395 1022.48 198.725 1022.48 199.13C1022.48 199.52 1022.15 199.85 1021.74 199.85C1021.35 199.85 1021.02 199.52 1021.02 199.13ZM1023.63 202.55V201.5H1024.84V200.6C1024.84 198.965 1025.85 197.9 1027.39 197.9C1027.98 197.9 1028.53 197.99 1029.03 198.215L1028.73 199.145C1028.34 198.995 1027.9 198.95 1027.39 198.95C1026.52 198.95 1026.04 199.58 1026.04 200.6V201.5H1028.11V202.55H1026.04V209H1024.84V202.55H1023.63ZM1028.59 202.55V201.5H1029.8V200.6C1029.8 198.965 1030.81 197.9 1032.35 197.9C1032.94 197.9 1033.49 197.99 1033.99 198.215L1033.69 199.145C1033.3 198.995 1032.86 198.95 1032.35 198.95C1031.48 198.95 1031 199.58 1031 200.6V201.5H1033.07V202.55H1031V209H1029.8V202.55H1028.59ZM1037.22 201.35C1039.15 201.35 1040.31 202.475 1040.53 204.5V205.4H1034.82C1034.91 207.125 1035.87 208.07 1037.67 208.1C1038.46 208.1 1039.23 207.95 1039.87 207.65L1040.13 208.625C1039.36 208.97 1038.52 209.15 1037.67 209.15C1035.33 209.15 1033.62 207.68 1033.62 205.265C1033.62 203.21 1035.07 201.38 1037.22 201.35ZM1037.23 202.4C1036 202.4 1035.18 203.27 1034.91 204.35H1039.32C1039.26 203.12 1038.37 202.4 1037.23 202.4ZM1042.1 209.015V201.5H1043.3V202.34L1043.39 202.385C1043.9 201.785 1044.71 201.35 1045.69 201.35H1045.9V202.4H1045.54C1044.62 202.4 1043.84 202.835 1043.3 203.525V209.015H1042.1ZM1049.9 201.35C1051.84 201.35 1052.99 202.475 1053.22 204.5V205.4H1047.5C1047.59 207.125 1048.55 208.07 1050.35 208.1C1051.15 208.1 1051.91 207.95 1052.56 207.65L1052.81 208.625C1052.05 208.97 1051.21 209.15 1050.35 209.15C1048.01 209.15 1046.3 207.68 1046.3 205.265C1046.3 203.21 1047.76 201.38 1049.9 201.35ZM1049.92 202.4C1048.69 202.4 1047.86 203.27 1047.59 204.35H1052C1051.94 203.12 1051.06 202.4 1049.92 202.4ZM1054.79 209V201.5H1055.99V202.475L1056.08 202.505C1056.63 201.83 1057.59 201.35 1058.82 201.35C1060.31 201.35 1061.54 202.415 1061.54 204.5V209H1060.34V204.5C1060.34 203.03 1059.53 202.4 1058.52 202.4C1057.49 202.4 1056.51 202.865 1055.99 203.81V209H1054.79ZM1064.08 205.25C1064.08 206.825 1065.22 208.1 1066.63 208.1C1067.23 208.1 1067.79 208.025 1068.27 207.755L1068.57 208.73C1067.92 209.06 1067.32 209.15 1066.63 209.15C1064.55 209.15 1062.88 207.425 1062.88 205.25C1062.88 203.075 1064.55 201.35 1066.63 201.35C1067.32 201.35 1067.92 201.44 1068.57 201.785L1068.27 202.745C1067.85 202.55 1067.32 202.4 1066.63 202.4C1065.22 202.4 1064.08 203.69 1064.08 205.25ZM1072.85 201.35C1074.78 201.35 1075.94 202.475 1076.16 204.5V205.4H1070.45C1070.54 207.125 1071.5 208.07 1073.3 208.1C1074.09 208.1 1074.86 207.95 1075.5 207.65L1075.76 208.625C1074.99 208.97 1074.15 209.15 1073.3 209.15C1070.96 209.15 1069.25 207.68 1069.25 205.265C1069.25 203.21 1070.7 201.38 1072.85 201.35ZM1072.86 202.4C1071.63 202.4 1070.81 203.27 1070.54 204.35H1074.95C1074.89 203.12 1074 202.4 1072.86 202.4Z" fill="#F1ECE5"/>
<path d="M1011.29 171.194L1011.86 168.972C1013.27 169.485 1014.54 169.851 1016.23 169.851C1017.81 169.851 1019.33 169.094 1019.33 167.311C1019.33 165.944 1018.45 165.211 1016.01 164.43C1013.42 163.551 1011.29 162.11 1011.29 159.57C1011.29 156.737 1013.27 155.175 1015.71 154.759V152.22H1018.06V154.711C1019.38 154.857 1020.57 155.223 1021.77 155.712L1021.18 157.958C1019.82 157.421 1018.62 157.055 1016.98 157.055C1015.49 157.055 1014.13 157.861 1014.13 159.473C1014.13 160.694 1015.08 161.499 1017.4 162.305C1020.11 163.282 1022.16 164.625 1022.16 167.189C1022.16 169.973 1020.33 171.512 1018.06 172.024V174.442H1015.71V172.22C1014.18 172.147 1012.69 171.78 1011.29 171.194ZM1027.14 172V157.201H1024.16V154.906H1029.87V172H1027.14ZM1033.16 170.877C1033.16 169.998 1033.7 169.314 1034.55 169.314C1035.48 169.314 1036.11 170.022 1036.11 171.048C1036.11 172.366 1035.38 174.002 1033.84 175.443L1032.65 174.686C1033.28 173.954 1033.62 173.221 1033.82 172.537C1033.55 172.024 1033.16 171.56 1033.16 170.877ZM1047.52 154.662L1048 156.908C1045.56 157.226 1043.36 158.325 1042.14 160.449C1041.63 161.377 1041.34 162.501 1041.22 163.404L1041.36 163.453C1042.22 162.452 1043.8 161.719 1045.54 161.719C1048.37 161.719 1050.74 163.746 1050.74 166.847C1050.74 170.193 1047.86 172.244 1044.63 172.244C1040.75 172.195 1038.43 169.094 1038.43 165.504C1038.43 161.866 1039.75 158.056 1043.24 156.054C1044.54 155.297 1045.93 154.906 1047.52 154.662ZM1041.7 168.19C1042.34 169.314 1043.41 169.949 1044.71 169.949C1046.54 169.949 1048.1 168.899 1048.1 166.994C1048.1 165.016 1046.71 164.015 1044.83 164.015C1043.24 164.039 1041.8 164.845 1041.09 166.164C1041.17 166.921 1041.36 167.678 1041.7 168.19ZM1062.25 154.662L1062.74 156.908C1060.3 157.226 1058.1 158.325 1056.88 160.449C1056.37 161.377 1056.08 162.501 1055.95 163.404L1056.1 163.453C1056.95 162.452 1058.54 161.719 1060.28 161.719C1063.11 161.719 1065.48 163.746 1065.48 166.847C1065.48 170.193 1062.6 172.244 1059.37 172.244C1055.49 172.195 1053.17 169.094 1053.17 165.504C1053.17 161.866 1054.49 158.056 1057.98 156.054C1059.27 155.297 1060.67 154.906 1062.25 154.662ZM1056.44 168.19C1057.08 169.314 1058.15 169.949 1059.44 169.949C1061.28 169.949 1062.84 168.899 1062.84 166.994C1062.84 165.016 1061.45 164.015 1059.57 164.015C1057.98 164.039 1056.54 164.845 1055.83 166.164C1055.9 166.921 1056.1 167.678 1056.44 168.19ZM1076.58 156.518L1071.23 172H1068.49L1073.84 157.201H1066.03V154.906H1076.58V156.518Z" fill="#F1ECE5"/>
<path d="M132.796 275.914V267.349L132.706 267.334L132.601 267.784L128.851 275.914H127.876L124.126 267.784L123.991 267.199L123.901 267.214V275.914H122.701V265.414H124.261L128.146 274.024L128.311 274.594H128.401L128.596 274.009L132.466 265.414H133.996V275.914H132.796ZM135.569 272.164C135.569 269.989 137.294 268.264 139.469 268.264C141.644 268.264 143.384 269.989 143.384 272.164C143.384 274.339 141.644 276.064 139.469 276.064C137.294 276.064 135.569 274.339 135.569 272.164ZM136.769 272.164C136.769 273.739 137.969 275.014 139.469 275.014C140.954 275.014 142.184 273.739 142.184 272.164C142.184 270.604 140.954 269.314 139.469 269.314C137.969 269.314 136.769 270.604 136.769 272.164ZM144.878 275.914V268.414H146.078V269.389L146.168 269.419C146.723 268.744 147.683 268.264 148.913 268.264C150.398 268.264 151.628 269.329 151.628 271.414V275.914H150.428V271.414C150.428 269.944 149.618 269.314 148.613 269.314C147.578 269.314 146.603 269.779 146.078 270.724V275.914H144.878ZM152.597 269.464V268.414H153.812V266.014H155.012V268.414H157.232V269.464H155.012V273.439C155.012 274.489 155.567 274.939 156.362 274.939C156.812 274.939 157.202 274.894 157.547 274.744L157.847 275.674C157.397 275.899 156.887 275.989 156.362 275.989C154.907 275.989 153.812 275.074 153.812 273.439V269.464H152.597ZM159.043 275.914V264.964H160.243V269.389L160.333 269.419C160.888 268.744 161.848 268.264 163.078 268.264C164.563 268.264 165.793 269.329 165.793 271.414V275.914H164.593V271.414C164.593 269.944 163.783 269.314 162.778 269.314C161.743 269.314 160.768 269.779 160.243 270.724V275.914H159.043ZM170.299 274.999L170.149 276.049C168.784 276.049 167.899 275.314 167.899 273.949V264.964H169.099V273.949C169.099 274.639 169.609 274.954 170.299 274.999ZM172.281 268.414L174.591 274.084L174.681 274.489H174.771L176.886 268.414H178.266L174.801 277.249C174.291 278.569 173.616 279.649 171.636 279.649L171.531 278.614C172.761 278.614 173.301 278.104 173.721 276.979L174.156 275.794L170.901 268.414H172.281ZM112.637 292.914V282.414H115.472C118.547 282.414 120.722 284.679 120.722 287.664C120.722 290.649 118.547 292.914 115.472 292.914H112.637ZM115.472 283.464H113.837V291.864H115.472C117.872 291.864 119.522 290.049 119.522 287.664C119.522 285.429 117.872 283.464 115.472 283.464ZM122.521 292.914V285.414H123.721V292.914H122.521ZM122.386 283.044C122.386 282.639 122.716 282.309 123.106 282.309C123.511 282.309 123.841 282.639 123.841 283.044C123.841 283.434 123.511 283.764 123.106 283.764C122.716 283.764 122.386 283.434 122.386 283.044ZM124.989 286.464V285.414H126.204V284.514C126.204 282.879 127.209 281.814 128.754 281.814C129.339 281.814 129.894 281.904 130.389 282.129L130.089 283.059C129.699 282.909 129.264 282.864 128.754 282.864C127.884 282.864 127.404 283.494 127.404 284.514V285.414H129.474V286.464H127.404V292.914H126.204V286.464H124.989ZM129.948 286.464V285.414H131.163V284.514C131.163 282.879 132.168 281.814 133.713 281.814C134.298 281.814 134.853 281.904 135.348 282.129L135.048 283.059C134.658 282.909 134.223 282.864 133.713 282.864C132.843 282.864 132.363 283.494 132.363 284.514V285.414H134.433V286.464H132.363V292.914H131.163V286.464H129.948ZM138.578 285.264C140.513 285.264 141.668 286.389 141.893 288.414V289.314H136.178C136.268 291.039 137.228 291.984 139.028 292.014C139.823 292.014 140.588 291.864 141.233 291.564L141.488 292.539C140.723 292.884 139.883 293.064 139.028 293.064C136.688 293.064 134.978 291.594 134.978 289.179C134.978 287.124 136.433 285.294 138.578 285.264ZM138.593 286.314C137.363 286.314 136.538 287.184 136.268 288.264H140.678C140.618 287.034 139.733 286.314 138.593 286.314ZM143.464 292.929V285.414H144.664V286.254L144.754 286.299C145.264 285.699 146.074 285.264 147.049 285.264H147.259V286.314H146.899C145.984 286.314 145.204 286.749 144.664 287.439V292.929H143.464ZM151.264 285.264C153.199 285.264 154.354 286.389 154.579 288.414V289.314H148.864C148.954 291.039 149.914 291.984 151.714 292.014C152.509 292.014 153.274 291.864 153.919 291.564L154.174 292.539C153.409 292.884 152.569 293.064 151.714 293.064C149.374 293.064 147.664 291.594 147.664 289.179C147.664 287.124 149.119 285.294 151.264 285.264ZM151.279 286.314C150.049 286.314 149.224 287.184 148.954 288.264H153.364C153.304 287.034 152.419 286.314 151.279 286.314ZM156.151 292.914V285.414H157.351V286.389L157.441 286.419C157.996 285.744 158.956 285.264 160.186 285.264C161.671 285.264 162.901 286.329 162.901 288.414V292.914H161.701V288.414C161.701 286.944 160.891 286.314 159.886 286.314C158.851 286.314 157.876 286.779 157.351 287.724V292.914H156.151ZM165.445 289.164C165.445 290.739 166.585 292.014 167.995 292.014C168.595 292.014 169.15 291.939 169.63 291.669L169.93 292.644C169.285 292.974 168.685 293.064 167.995 293.064C165.91 293.064 164.245 291.339 164.245 289.164C164.245 286.989 165.91 285.264 167.995 285.264C168.685 285.264 169.285 285.354 169.93 285.699L169.63 286.659C169.21 286.464 168.685 286.314 167.995 286.314C166.585 286.314 165.445 287.604 165.445 289.164ZM174.211 285.264C176.146 285.264 177.301 286.389 177.526 288.414V289.314H171.811C171.901 291.039 172.861 291.984 174.661 292.014C175.456 292.014 176.221 291.864 176.866 291.564L177.121 292.539C176.356 292.884 175.516 293.064 174.661 293.064C172.321 293.064 170.611 291.594 170.611 289.179C170.611 287.124 172.066 285.294 174.211 285.264ZM174.226 286.314C172.996 286.314 172.171 287.184 171.901 288.264H176.311C176.251 287.034 175.366 286.314 174.226 286.314Z" fill="#F1ECE5"/>
<path d="M112.764 255.194L113.326 252.972C114.742 253.485 116.012 253.851 117.697 253.851C119.284 253.851 120.798 253.094 120.798 251.311C120.798 249.944 119.919 249.211 117.477 248.43C114.888 247.551 112.764 246.11 112.764 243.57C112.764 240.737 114.742 239.175 117.184 238.759V236.22H119.528V238.711C120.847 238.857 122.043 239.223 123.24 239.712L122.654 241.958C121.286 241.421 120.09 241.055 118.454 241.055C116.964 241.055 115.597 241.861 115.597 243.473C115.597 244.694 116.549 245.499 118.869 246.305C121.58 247.282 123.631 248.625 123.631 251.189C123.631 253.973 121.799 255.512 119.528 256.024V258.442H117.184V256.22C115.645 256.147 114.156 255.78 112.764 255.194ZM128.609 256V241.201H125.63V238.906H131.344V256H128.609ZM134.629 254.877C134.629 253.998 135.167 253.314 136.021 253.314C136.949 253.314 137.584 254.022 137.584 255.048C137.584 256.366 136.852 258.002 135.313 259.443L134.117 258.686C134.751 257.954 135.093 257.221 135.289 256.537C135.02 256.024 134.629 255.56 134.629 254.877ZM141.659 247.941V245.744H143.222C145.176 245.744 146.787 244.864 146.787 243.277C146.787 241.69 145.444 240.86 143.759 240.86C142.44 240.86 141.122 240.982 140.072 241.421L139.73 239.37C141 238.808 142.416 238.662 143.759 238.662C146.983 238.662 149.425 240.371 149.425 243.179C149.425 244.767 148.399 246.037 146.958 246.696V246.842C148.692 247.551 149.913 249.089 149.913 251.116C149.913 254.071 147.373 256 144.003 256C142.587 256 141.024 255.853 139.681 255.292L140.072 253.241C141.195 253.68 142.685 253.802 144.003 253.802C145.835 253.802 147.276 252.874 147.276 251.018C147.276 248.918 145.737 247.941 143.71 247.941H141.659ZM153.087 243.302C153.087 240.762 155.48 238.662 158.411 238.662C161.341 238.662 163.759 240.762 163.759 243.302C163.759 244.864 162.684 246.281 161.292 246.965V247.111C163.124 247.844 164.491 249.48 164.491 251.238C164.491 254.071 161.781 256.244 158.411 256.244C155.065 256.244 152.354 254.071 152.354 251.238C152.354 249.48 153.722 247.844 155.529 247.111V246.965C154.137 246.281 153.087 244.864 153.087 243.302ZM154.992 251.067C154.992 252.777 156.53 253.949 158.411 253.949C160.315 253.949 161.854 252.777 161.854 251.067C161.854 249.48 160.315 248.234 158.411 248.234C156.53 248.234 154.992 249.48 154.992 251.067ZM155.724 243.448C155.724 244.864 156.945 245.939 158.411 245.939C159.925 245.939 161.121 244.864 161.121 243.448C161.121 242.007 159.925 240.957 158.411 240.957C156.945 240.957 155.724 242.007 155.724 243.448ZM168.941 247.941V245.744H170.504C172.457 245.744 174.069 244.864 174.069 243.277C174.069 241.69 172.726 240.86 171.041 240.86C169.722 240.86 168.404 240.982 167.353 241.421L167.012 239.37C168.281 238.808 169.698 238.662 171.041 238.662C174.264 238.662 176.706 240.371 176.706 243.179C176.706 244.767 175.681 246.037 174.24 246.696V246.842C175.974 247.551 177.195 249.089 177.195 251.116C177.195 254.071 174.655 256 171.285 256C169.869 256 168.306 255.853 166.963 255.292L167.353 253.241C168.477 253.68 169.966 253.802 171.285 253.802C173.117 253.802 174.557 252.874 174.557 251.018C174.557 248.918 173.019 247.941 170.992 247.941H168.941Z" fill="#F1ECE5"/>
<path d="M178.49 327.505L178.775 326.5C179.675 326.845 180.5 327.1 181.58 327.1C182.705 327.1 183.785 326.515 183.785 325.165C183.785 324.205 183.185 323.635 181.58 323.185C180.035 322.75 178.535 321.865 178.535 320.245C178.535 318.535 179.735 317.605 181.175 317.395V315.85H182.375V317.38C183.215 317.455 183.965 317.68 184.73 317.995L184.43 319.015C183.575 318.655 182.825 318.4 181.79 318.4C180.725 318.4 179.735 319 179.735 320.245C179.735 321.1 180.365 321.67 181.94 322.18C183.56 322.705 184.985 323.47 184.985 325.165C184.985 326.905 183.8 327.85 182.375 328.09V329.5H181.175V328.135C180.245 328.075 179.345 327.85 178.49 327.505ZM191.45 328V325.675H186.08V324.955L189.485 317.5H190.745L187.505 324.625H191.45V321.55H192.65V324.625H194.075V325.675H192.65V328H191.45ZM194.985 327.31C194.985 326.845 195.27 326.47 195.72 326.47C196.23 326.47 196.56 326.86 196.56 327.415C196.56 328.225 196.11 329.23 195.165 330.115L194.58 329.65C195.03 329.2 195.27 328.75 195.39 328.33C195.225 328.015 194.985 327.73 194.985 327.31ZM199.364 328V318.55H197.534V317.5H200.564V328H199.364ZM202.545 322.3V317.5H208.125V318.55H203.745V321.25H204.9C206.985 321.25 208.5 322.54 208.5 324.55C208.5 326.635 206.865 328 204.69 328C203.91 328 203.1 327.94 202.365 327.715L202.56 326.71C203.175 326.86 203.955 326.95 204.69 326.95C206.175 326.95 207.3 326.17 207.3 324.55C207.3 323.035 206.31 322.3 204.9 322.3H202.545ZM209.55 322.75C209.55 319.675 210.735 317.35 213.3 317.35C215.865 317.35 217.065 319.675 217.065 322.75C217.065 325.825 215.88 328.15 213.3 328.15C210.735 328.15 209.55 325.825 209.55 322.75ZM210.75 322.75C210.75 325.225 211.395 327.1 213.3 327.1C215.205 327.1 215.865 325.225 215.865 322.75C215.865 320.44 215.22 318.4 213.3 318.4C211.395 318.4 210.75 320.44 210.75 322.75Z" fill="#F1ECE5"/>
<path d="M968.317 257.505L968.602 256.5C969.502 256.845 970.327 257.1 971.407 257.1C972.532 257.1 973.612 256.515 973.612 255.165C973.612 254.205 973.012 253.635 971.407 253.185C969.862 252.75 968.362 251.865 968.362 250.245C968.362 248.535 969.562 247.605 971.002 247.395V245.85H972.202V247.38C973.042 247.455 973.792 247.68 974.557 247.995L974.257 249.015C973.402 248.655 972.652 248.4 971.617 248.4C970.552 248.4 969.562 249 969.562 250.245C969.562 251.1 970.192 251.67 971.767 252.18C973.387 252.705 974.812 253.47 974.812 255.165C974.812 256.905 973.627 257.85 972.202 258.09V259.5H971.002V258.135C970.072 258.075 969.172 257.85 968.317 257.505ZM976.191 252.3V247.5H981.771V248.55H977.391V251.25H978.546C980.631 251.25 982.146 252.54 982.146 254.55C982.146 256.635 980.511 258 978.336 258C977.556 258 976.746 257.94 976.011 257.715L976.206 256.71C976.821 256.86 977.601 256.95 978.336 256.95C979.821 256.95 980.946 256.17 980.946 254.55C980.946 253.035 979.956 252.3 978.546 252.3H976.191ZM983.362 257.31C983.362 256.845 983.647 256.47 984.097 256.47C984.607 256.47 984.937 256.86 984.937 257.415C984.937 258.225 984.487 259.23 983.542 260.115L982.957 259.65C983.407 259.2 983.647 258.75 983.767 258.33C983.602 258.015 983.362 257.73 983.362 257.31ZM987.276 252.9V251.85H988.176C989.586 251.85 990.726 251.22 990.726 250.125C990.726 248.985 989.781 248.4 988.566 248.4C987.726 248.4 986.901 248.475 986.241 248.745L986.091 247.785C986.871 247.44 987.741 247.35 988.566 247.35C990.471 247.35 991.926 248.4 991.926 250.125C991.926 251.1 991.266 251.88 990.381 252.285V252.375C991.446 252.81 992.226 253.74 992.226 255C992.226 256.815 990.711 258 988.716 258C987.846 258 986.886 257.91 986.061 257.565L986.241 256.605C986.946 256.875 987.891 256.95 988.716 256.95C990.021 256.95 991.026 256.305 991.026 255C991.026 253.59 989.886 252.9 988.476 252.9H987.276ZM994.49 252.9V251.85H995.39C996.8 251.85 997.94 251.22 997.94 250.125C997.94 248.985 996.995 248.4 995.78 248.4C994.94 248.4 994.115 248.475 993.455 248.745L993.305 247.785C994.085 247.44 994.955 247.35 995.78 247.35C997.685 247.35 999.14 248.4 999.14 250.125C999.14 251.1 998.48 251.88 997.595 252.285V252.375C998.66 252.81 999.44 253.74 999.44 255C999.44 256.815 997.925 258 995.93 258C995.06 258 994.1 257.91 993.275 257.565L993.455 256.605C994.16 256.875 995.105 256.95 995.93 256.95C997.235 256.95 998.24 256.305 998.24 255C998.24 253.59 997.1 252.9 995.69 252.9H994.49ZM1001.71 252.9V251.85H1002.61C1004.02 251.85 1005.16 251.22 1005.16 250.125C1005.16 248.985 1004.21 248.4 1003 248.4C1002.16 248.4 1001.33 248.475 1000.67 248.745L1000.52 247.785C1001.3 247.44 1002.17 247.35 1003 247.35C1004.9 247.35 1006.36 248.4 1006.36 250.125C1006.36 251.1 1005.7 251.88 1004.81 252.285V252.375C1005.88 252.81 1006.66 253.74 1006.66 255C1006.66 256.815 1005.14 258 1003.15 258C1002.28 258 1001.32 257.91 1000.49 257.565L1000.67 256.605C1001.38 256.875 1002.32 256.95 1003.15 256.95C1004.45 256.95 1005.46 256.305 1005.46 255C1005.46 253.59 1004.32 252.9 1002.91 252.9H1001.71ZM1008.51 250.35V249.51H1009.23C1009.95 249.51 1010.55 249.285 1010.55 248.85C1010.55 248.415 1010.09 248.19 1009.55 248.19C1008.96 248.19 1008.38 248.25 1007.93 248.46L1007.81 247.695C1008.35 247.425 1008.95 247.35 1009.55 247.35C1010.63 247.35 1011.51 247.905 1011.51 248.85C1011.51 249.285 1011.2 249.645 1010.82 249.84L1010.84 249.93C1011.35 250.14 1011.75 250.59 1011.75 251.19C1011.75 252.06 1010.82 252.63 1009.67 252.63C1009.04 252.63 1008.36 252.555 1007.78 252.285L1007.93 251.52C1008.41 251.73 1009.07 251.79 1009.67 251.79C1010.28 251.79 1010.79 251.58 1010.79 251.19C1010.79 250.65 1010.19 250.35 1009.47 250.35H1008.51Z" fill="#F1ECE5"/>
<path d="M199 307L257.982 296.667L315.723 290L373.812 283.5L429.902 279.318L486.964 274.5L544.568 269.409L600.172 265.636L658.29 262.136L705.879 260.333L764.101 253.333L821.753 249.515L876.579 245.783L931.348 241.328L989 237" stroke="#F1ECE5"/>
<circle cx="316" cy="290" r="7" fill="#F1ECE5"/>
<circle cx="258" cy="297" r="7" fill="#F1ECE5"/>
<circle cx="429" cy="279" r="7" fill="#F1ECE5"/>
<circle cx="373" cy="284" r="7" fill="#F1ECE5"/>
<circle cx="486" cy="275" r="7" fill="#F1ECE5"/>
<circle cx="600" cy="266" r="7" fill="#F1ECE5"/>
<circle cx="543" cy="270" r="7" fill="#F1ECE5"/>
<circle cx="707" cy="261" r="7" fill="#F1ECE5"/>
<circle cx="657" cy="263" r="7" fill="#F1ECE5"/>
<circle cx="766" cy="253" r="7" fill="#F1ECE5"/>
<circle cx="880" cy="246" r="7" fill="#F1ECE5"/>
<circle cx="935" cy="240" r="7" fill="#F1ECE5"/>
<circle cx="823" cy="249" r="7" fill="#F1ECE5"/>
<line x1="190.25" y1="236.5" x2="209.082" y2="236.5" stroke="#F1ECE5"/>
<line x1="199.5" y1="237" x2="199.5" y2="293.525" stroke="#F1ECE5"/>
<line x1="189.766" y1="293.5" x2="208.597" y2="293.5" stroke="#F1ECE5"/>
<line x1="980.047" y1="145.116" x2="998.879" y2="145.116" stroke="#F1ECE5"/>
<line x1="989.5" y1="145.842" x2="989.5" y2="222.468" stroke="#F1ECE5"/>
<line x1="980.047" y1="222.5" x2="998.879" y2="222.5" stroke="#F1ECE5"/>
<path d="M178.25 211.505L178.535 210.5C179.435 210.845 180.26 211.1 181.34 211.1C182.465 211.1 183.545 210.515 183.545 209.165C183.545 208.205 182.945 207.635 181.34 207.185C179.795 206.75 178.295 205.865 178.295 204.245C178.295 202.535 179.495 201.605 180.935 201.395V199.85H182.135V201.38C182.975 201.455 183.725 201.68 184.49 201.995L184.19 203.015C183.335 202.655 182.585 202.4 181.55 202.4C180.485 202.4 179.495 203 179.495 204.245C179.495 205.1 180.125 205.67 181.7 206.18C183.32 206.705 184.745 207.47 184.745 209.165C184.745 210.905 183.56 211.85 182.135 212.09V213.5H180.935V212.135C180.005 212.075 179.105 211.85 178.25 211.505ZM186.125 206.3V201.5H191.705V202.55H187.325V205.25H188.48C190.565 205.25 192.08 206.54 192.08 208.55C192.08 210.635 190.445 212 188.27 212C187.49 212 186.68 211.94 185.945 211.715L186.14 210.71C186.755 210.86 187.535 210.95 188.27 210.95C189.755 210.95 190.88 210.17 190.88 208.55C190.88 207.035 189.89 206.3 188.48 206.3H186.125ZM193.295 211.31C193.295 210.845 193.58 210.47 194.03 210.47C194.54 210.47 194.87 210.86 194.87 211.415C194.87 212.225 194.42 213.23 193.475 214.115L192.89 213.65C193.34 213.2 193.58 212.75 193.7 212.33C193.535 212.015 193.295 211.73 193.295 211.31ZM196.174 206.3V201.5H201.754V202.55H197.374V205.25H198.529C200.614 205.25 202.129 206.54 202.129 208.55C202.129 210.635 200.494 212 198.319 212C197.539 212 196.729 211.94 195.994 211.715L196.189 210.71C196.804 210.86 197.584 210.95 198.319 210.95C199.804 210.95 200.929 210.17 200.929 208.55C200.929 207.035 199.939 206.3 198.529 206.3H196.174ZM204.394 206.9V205.85H205.294C206.704 205.85 207.844 205.22 207.844 204.125C207.844 202.985 206.899 202.4 205.684 202.4C204.844 202.4 204.019 202.475 203.359 202.745L203.209 201.785C203.989 201.44 204.859 201.35 205.684 201.35C207.589 201.35 209.044 202.4 209.044 204.125C209.044 205.1 208.384 205.88 207.499 206.285V206.375C208.564 206.81 209.344 207.74 209.344 209C209.344 210.815 207.829 212 205.834 212C204.964 212 204.004 211.91 203.179 211.565L203.359 210.605C204.064 210.875 205.009 210.95 205.834 210.95C207.139 210.95 208.144 210.305 208.144 209C208.144 207.59 207.004 206.9 205.594 206.9H204.394ZM211.609 206.9V205.85H212.509C213.919 205.85 215.059 205.22 215.059 204.125C215.059 202.985 214.114 202.4 212.899 202.4C212.059 202.4 211.234 202.475 210.574 202.745L210.424 201.785C211.204 201.44 212.074 201.35 212.899 201.35C214.804 201.35 216.259 202.4 216.259 204.125C216.259 205.1 215.599 205.88 214.714 206.285V206.375C215.779 206.81 216.559 207.74 216.559 209C216.559 210.815 215.044 212 213.049 212C212.179 212 211.219 211.91 210.394 211.565L210.574 210.605C211.279 210.875 212.224 210.95 213.049 210.95C214.354 210.95 215.359 210.305 215.359 209C215.359 207.59 214.219 206.9 212.809 206.9H211.609ZM218.554 206.54V202.34H217.684V201.5H219.514V206.54H218.554Z" fill="#F1ECE5"/>
<path d="M966.151 119.505L966.436 118.5C967.336 118.845 968.161 119.1 969.241 119.1C970.366 119.1 971.446 118.515 971.446 117.165C971.446 116.205 970.846 115.635 969.241 115.185C967.696 114.75 966.196 113.865 966.196 112.245C966.196 110.535 967.396 109.605 968.836 109.395V107.85H970.036V109.38C970.876 109.455 971.626 109.68 972.391 109.995L972.091 111.015C971.236 110.655 970.486 110.4 969.451 110.4C968.386 110.4 967.396 111 967.396 112.245C967.396 113.1 968.026 113.67 969.601 114.18C971.221 114.705 972.646 115.47 972.646 117.165C972.646 118.905 971.461 119.85 970.036 120.09V121.5H968.836V120.135C967.906 120.075 967.006 119.85 966.151 119.505ZM979.696 110.25L976.291 120H975.091L978.496 110.55H973.396V109.5H979.696V110.25ZM980.61 119.31C980.61 118.845 980.895 118.47 981.345 118.47C981.855 118.47 982.185 118.86 982.185 119.415C982.185 120.225 981.735 121.23 980.79 122.115L980.205 121.65C980.655 121.2 980.895 120.75 981.015 120.33C980.85 120.015 980.61 119.73 980.61 119.31ZM983.309 114.75C983.309 111.675 984.494 109.35 987.059 109.35C989.624 109.35 990.824 111.675 990.824 114.75C990.824 117.825 989.639 120.15 987.059 120.15C984.494 120.15 983.309 117.825 983.309 114.75ZM984.509 114.75C984.509 117.225 985.154 119.1 987.059 119.1C988.964 119.1 989.624 117.225 989.624 114.75C989.624 112.44 988.979 110.4 987.059 110.4C985.154 110.4 984.509 112.44 984.509 114.75ZM991.871 114.75C991.871 111.675 993.056 109.35 995.621 109.35C998.186 109.35 999.386 111.675 999.386 114.75C999.386 117.825 998.201 120.15 995.621 120.15C993.056 120.15 991.871 117.825 991.871 114.75ZM993.071 114.75C993.071 117.225 993.716 119.1 995.621 119.1C997.526 119.1 998.186 117.225 998.186 114.75C998.186 112.44 997.541 110.4 995.621 110.4C993.716 110.4 993.071 112.44 993.071 114.75ZM1000.43 114.75C1000.43 111.675 1001.62 109.35 1004.18 109.35C1006.75 109.35 1007.95 111.675 1007.95 114.75C1007.95 117.825 1006.76 120.15 1004.18 120.15C1001.62 120.15 1000.43 117.825 1000.43 114.75ZM1001.63 114.75C1001.63 117.225 1002.28 119.1 1004.18 119.1C1006.09 119.1 1006.75 117.225 1006.75 114.75C1006.75 112.44 1006.1 110.4 1004.18 110.4C1002.28 110.4 1001.63 112.44 1001.63 114.75ZM1013.11 114.555H1009.15V113.955L1010.66 112.575C1011.52 111.78 1011.73 111.525 1011.73 110.97C1011.73 110.475 1011.4 110.235 1010.98 110.235C1010.38 110.235 1009.9 110.475 1009.46 110.865L1009.07 110.145C1009.61 109.695 1010.29 109.395 1010.98 109.395C1011.91 109.395 1012.69 109.905 1012.69 110.97C1012.69 111.705 1012.28 112.23 1011.32 113.07L1010.68 113.625L1010.72 113.715H1013.11V114.555Z" fill="#F1ECE5"/>
<circle cx="199" cy="305" r="7.57165" fill="#F1ECE5" stroke="#F1ECE5" stroke-width="1.1433"/>
<path d="M199 225L255.982 221.417L315.445 215.163L371.955 207.618L426.753 203.423L483.834 198.431L538.632 187.39L596.854 180.049L655.647 176.504L706.5 173L764.101 164.083L821.753 158.22L879.5 150L935 140.5L990 132" stroke="#F1ECE5"/>
<circle cx="316" cy="215" r="6.5" fill="#1B413E" stroke="#F1ECE5"/>
<circle cx="258" cy="221" r="6.5" fill="#1B413E" stroke="#F1ECE5"/>
<circle cx="429" cy="204" r="6.5" fill="#1B413E" stroke="#F1ECE5"/>
<circle cx="373" cy="208" r="6.5" fill="#1B413E" stroke="#F1ECE5"/>
<circle cx="486" cy="197" r="6.5" fill="#1B413E" stroke="#F1ECE5"/>
<circle cx="600" cy="180" r="6.5" fill="#1B413E" stroke="#F1ECE5"/>
<circle cx="543" cy="187" r="6.5" fill="#1B413E" stroke="#F1ECE5"/>
<circle cx="707" cy="172" r="6.5" fill="#1B413E" stroke="#F1ECE5"/>
<circle cx="657" cy="176" r="6.5" fill="#1B413E" stroke="#F1ECE5"/>
<circle cx="766" cy="164" r="6.5" fill="#1B413E" stroke="#F1ECE5"/>
<circle cx="880" cy="150" r="6.5" fill="#1B413E" stroke="#F1ECE5"/>
<circle cx="935" cy="140" r="6.5" fill="#1B413E" stroke="#F1ECE5"/>
<circle cx="823" cy="159" r="6.5" fill="#1B413E" stroke="#F1ECE5"/>
<circle cx="200.344" cy="225" r="7.57165" fill="#1B413E" stroke="#F1ECE5" stroke-width="1.1433"/>
<circle cx="990" cy="132" r="7.5" fill="#1B413E" stroke="#F1ECE5"/>
<circle cx="990" cy="235" r="7.5" fill="#F1ECE5" stroke="#F1ECE5"/>
</svg>
