<svg width="26" height="24" viewBox="0 0 26 24" fill="none" xmlns="http://www.w3.org/2000/svg">
<g id="logo-equalhousing" clip-path="url(#clip0_1204_1107)">
<path id="Vector" fill-rule="evenodd" clip-rule="evenodd" d="M2.8827 19.6138H1.90016V20.0027H2.80257V20.3312H1.90016V20.8091H2.9263V21.1378H1.52121V19.2862H2.88271V19.6138L2.8827 19.6138ZM4.12517 20.6343L4.3109 20.8092C4.2463 20.8423 4.17464 20.8593 4.10205 20.8586C3.89306 20.8586 3.59895 20.7299 3.59895 20.2117C3.59895 19.6935 3.89306 19.5648 4.10205 19.5648C4.31104 19.5648 4.60474 19.6935 4.60474 20.2117C4.60474 20.3853 4.57124 20.5134 4.51976 20.6093L4.32378 20.4264L4.12517 20.6343ZM4.99947 21.0619L4.79781 20.8722C4.9113 20.7275 4.99159 20.5162 4.99159 20.2118C4.99159 19.3431 4.3469 19.2376 4.10191 19.2376C3.85693 19.2376 3.21266 19.3431 3.21266 20.2118C3.21266 21.0806 3.85707 21.1864 4.10191 21.1864C4.20987 21.1864 4.40087 21.1661 4.57622 21.0621L4.79573 21.2716L4.99946 21.0619L4.99947 21.0619ZM6.81202 20.4905C6.81202 20.9771 6.51763 21.1862 6.05093 21.1862C5.88097 21.1862 5.62824 21.1451 5.46326 20.9621C5.36278 20.8495 5.32402 20.6986 5.31905 20.5134V19.2862H5.7135V20.4873C5.7135 20.746 5.86298 20.8588 6.04318 20.8588C6.30906 20.8588 6.41701 20.73 6.41701 20.5057V19.2862H6.81216V20.4905H6.81202ZM7.84799 19.704H7.85367L8.08273 20.4363H7.61021L7.84799 19.704ZM7.50695 20.7551H8.19054L8.30929 21.1379H8.72963L8.07773 19.2862H7.63138L6.97133 21.1379H7.37865L7.50695 20.7551ZM9.41806 20.8027H10.3385V21.1378H9.0308V19.2862H9.41806V20.8027ZM11.805 20.3068V21.1378H11.4188V19.2862H11.805V19.9874H12.5272V19.2862H12.9135V21.1378H12.5272V20.3068H11.805ZM13.6506 20.2117C13.6506 19.6935 13.945 19.5648 14.1532 19.5648C14.3624 19.5648 14.6566 19.6935 14.6566 20.2117C14.6566 20.7299 14.3624 20.8586 14.1532 20.8586C13.945 20.8586 13.6506 20.7299 13.6506 20.2117ZM13.2643 20.2117C13.2643 21.081 13.9093 21.1862 14.1532 21.1862C14.3991 21.1862 15.0434 21.081 15.0434 20.2117C15.0434 19.3424 14.3993 19.2375 14.1532 19.2375C13.9094 19.2375 13.2643 19.343 13.2643 20.2117ZM16.8897 20.4905C16.8897 20.9771 16.5953 21.1862 16.1285 21.1862C15.9583 21.1862 15.7062 21.1451 15.5405 20.9621C15.4402 20.8495 15.4013 20.6986 15.3967 20.5134V19.2862H15.7906V20.4873C15.7906 20.746 15.9407 20.8588 16.1216 20.8588C16.387 20.8588 16.4951 20.73 16.4951 20.5057V19.2862H16.8898V20.4905H16.8897ZM17.5974 20.5674C17.6008 20.6704 17.6527 20.8666 17.9902 20.8666C18.1729 20.8666 18.377 20.8229 18.377 20.6264C18.377 20.4826 18.2378 20.4434 18.0421 20.3972L17.8433 20.3507C17.5433 20.2812 17.2548 20.215 17.2548 19.8076C17.2548 19.6011 17.3665 19.2375 17.9669 19.2375C18.5346 19.2375 18.6865 19.6084 18.6892 19.8354H18.3175C18.3075 19.7535 18.2764 19.5569 17.9385 19.5569C17.792 19.5569 17.6166 19.611 17.6166 19.7787C17.6166 19.9238 17.7352 19.9536 17.8117 19.9717L18.2635 20.0826C18.5162 20.1447 18.7479 20.248 18.7479 20.5803C18.7479 21.1379 18.181 21.1864 18.0184 21.1864C17.3434 21.1864 17.2274 20.7969 17.2274 20.5676H17.5974V20.5674L17.5974 20.5674ZM19.4516 21.1378H19.066V19.2862H19.4516V21.1378ZM20.9967 19.2862H21.3573V21.1378H20.971L20.216 19.817H20.2095V21.1378H19.8489V19.2862H20.2563L20.9902 20.5756H20.9967V19.2862ZM22.6517 20.1397H23.4245V21.1378H23.1672L23.1286 20.9058C23.0307 21.0182 22.8889 21.1861 22.5509 21.1861C22.1051 21.1861 21.7007 20.8665 21.7007 20.217C21.7007 19.7121 21.9818 19.2346 22.6049 19.2373C23.173 19.2373 23.3975 19.6055 23.4169 19.8618H23.0306C23.0306 19.7894 22.8987 19.5569 22.6259 19.5569C22.3494 19.5569 22.0944 19.7475 22.0944 20.2217C22.0944 20.7274 22.3704 20.8586 22.6332 20.8586C22.7183 20.8586 23.0028 20.8257 23.0819 20.4513H22.6516V20.1397L22.6517 20.1397ZM1.82569 23.0244C1.82569 22.5062 2.11953 22.3769 2.3281 22.3769C2.53667 22.3769 2.83064 22.5062 2.83064 23.0244C2.83064 23.5426 2.53695 23.6721 2.3281 23.6721C2.11925 23.6721 1.82569 23.5423 1.82569 23.0244ZM1.43898 23.0244C1.43898 23.8929 2.08339 24 2.32824 24C2.57308 24 3.21763 23.893 3.21763 23.0244C3.21763 22.1558 2.57308 22.0501 2.32824 22.0501C2.08339 22.0501 1.43898 22.1559 1.43898 23.0244ZM4.27725 22.9622V22.4178H4.5841C4.82368 22.4178 4.92444 22.4932 4.92444 22.6738C4.92444 22.7563 4.92444 22.9622 4.63545 22.9622H4.27725ZM4.27725 23.2825H4.72043C5.21827 23.2825 5.31072 22.8591 5.31072 22.6918C5.31072 22.3285 5.09467 22.0987 4.73593 22.0987H3.8907V23.9505H4.27727L4.27725 23.2825ZM6.36025 22.9622V22.4178H6.66654C6.9064 22.4178 7.00702 22.4932 7.00702 22.6738C7.00702 22.7563 7.00702 22.9622 6.71872 22.9622H6.36025ZM6.36025 23.2825H6.8037C7.30112 23.2825 7.39428 22.8591 7.39428 22.6918C7.39428 22.3285 7.17795 22.0987 6.81948 22.0987H5.97341V23.9505H6.36025V23.2825ZM8.36131 23.0244C8.36131 22.5062 8.65446 22.3769 8.86414 22.3769C9.07203 22.3769 9.36655 22.5062 9.36655 23.0244C9.36655 23.5426 9.07216 23.6721 8.86414 23.6721C8.65446 23.6721 8.36131 23.5423 8.36131 23.0244ZM7.97448 23.0244C7.97448 23.8929 8.61875 24 8.86415 24C9.10955 24 9.75285 23.893 9.75285 23.0244C9.75285 22.1558 9.10844 22.0502 8.86415 22.0502C8.61986 22.0502 7.97448 22.1559 7.97448 23.0244ZM10.8056 22.9135V22.4178H11.2871C11.5141 22.4178 11.5575 22.5629 11.5575 22.6608C11.5575 22.844 11.4599 22.9135 11.2587 22.9135H10.8056ZM10.4255 23.9506H10.8056V23.2259H11.2044C11.4909 23.2259 11.5067 23.3235 11.5067 23.5762C11.5067 23.7665 11.5213 23.8619 11.5471 23.9506H11.9755V23.9006C11.893 23.87 11.893 23.8028 11.893 23.533C11.893 23.1865 11.8105 23.1303 11.6585 23.063C11.8415 23.0017 11.9442 22.8259 11.9442 22.6226C11.9442 22.4623 11.8545 22.099 11.3619 22.099H10.4254V23.9506H10.4255ZM13.3851 23.9506H12.9986V22.4265H12.4394V22.0989H13.945V22.4265H13.3851V23.9506H13.3851ZM16.0204 23.3026C16.0204 23.7898 15.7265 24 15.2594 24C15.0902 24 14.8374 23.9569 14.672 23.7743C14.5714 23.6613 14.5328 23.5116 14.5282 23.3261V22.0989H14.9221V23.2999C14.9221 23.5578 15.0719 23.6721 15.2522 23.6721C15.5177 23.6721 15.6258 23.5423 15.6258 23.3182V22.0987H16.0205V23.3026H16.0204ZM17.8918 22.0989H18.2534V23.9506H17.8659L17.1103 22.6298H17.1062V23.9506H16.7445V22.0989H17.1518L17.8872 23.3877H17.8918V22.0989ZM19.3445 23.9506H18.9565V22.0989H19.3445V23.9506ZM20.8542 23.9506H20.4676V22.4265H19.9091V22.0989H21.414V22.4265H20.8542L20.8542 23.9506ZM22.876 23.9506H22.4886V23.2515L21.8499 22.0989H22.3059L22.69 22.9036L23.057 22.0989H23.4947L22.876 23.2561L22.876 23.9506ZM12.4649 0L0 6.13924V9.02305H1.39512V17.6736H23.4408V9.02305H25.1161V6.13924L12.4649 0ZM20.7436 15.0683H4.09278V7.16246L12.4649 2.88381L20.7437 7.16246V15.0683H20.7436Z" fill="#f1ece5"/>
<path id="Vector_2" fill-rule="evenodd" clip-rule="evenodd" d="M16.2784 9.95208H8.55859V7.16211H16.2784V9.95208ZM16.2784 13.9537H8.55859V11.1619H16.2784V13.9537Z" fill="#f1ece5"/>
</g>
<defs>
<clipPath id="clip0_1204_1107">
<rect width="25.1161" height="24" fill="#f1ece5"/>
</clipPath>
</defs>
</svg>
